<svg width="20" height="17" viewBox="0 0 20 17" fill="none" xmlns="http://www.w3.org/2000/svg">
<path d="M12.8804 7.11235L12.762 6.99397C12.2217 6.47312 11.5457 6.0779 10.7696 5.86992C8.34733 5.22088 6.02117 6.59377 5.35987 9.06174C5.32417 9.19499 5.30478 9.34457 5.27375 9.72074C5.14519 11.2792 4.77874 12.4412 3.77383 13.62C5.65706 14.3604 7.8881 14.882 9.58467 14.882C11.6418 14.882 13.4703 13.4993 14.0105 11.4833C14.4422 9.87224 13.9594 8.23157 12.8804 7.11235ZM11.0738 4.22733L15.1898 1.02601C15.5216 0.767991 15.9935 0.797374 16.2907 1.09455L18.7858 3.58972C19.0831 3.88689 19.1124 4.35884 18.8544 4.69058L15.6539 8.80549C15.8982 9.79574 15.903 10.8599 15.6203 11.9147C14.8719 14.7079 12.3452 16.5487 9.58467 16.5487C6.66667 16.5487 2.91667 15.2971 0.833332 14.0471C4.14982 11.5471 3.37268 10.0386 3.75 8.63041C4.63202 5.33864 7.7852 3.41595 11.0738 4.22733ZM13.9179 5.79283C13.9727 5.84571 14.0266 5.89952 14.0793 5.95427L15.0247 6.89969L17.0872 4.24804L15.6324 2.79324L12.9807 4.85564L13.9179 5.79283Z" fill="#A1A8B3"/>
</svg>
