<svg width="20" height="21" viewBox="0 0 20 21" fill="none" xmlns="http://www.w3.org/2000/svg">
<path d="M10.0001 20.0498C4.47723 20.0498 8.01086e-05 15.5726 8.01086e-05 10.0498C8.01086e-05 4.52695 4.47723 0.0498047 10.0001 0.0498047C15.5229 0.0498047 20.0001 4.52695 20.0001 10.0498C20.0001 15.5726 15.5229 20.0498 10.0001 20.0498ZM10.0001 18.0498C14.4184 18.0498 18.0001 14.4681 18.0001 10.0498C18.0001 5.63152 14.4184 2.0498 10.0001 2.0498C5.5818 2.0498 2.00008 5.63152 2.00008 10.0498C2.00008 14.4681 5.5818 18.0498 10.0001 18.0498ZM11.0001 8.5498V13.0498H12.0001V15.0498H8.00008V13.0498H9.00008V10.5498H8.00008V8.5498H11.0001ZM11.5001 6.0498C11.5001 6.87823 10.8285 7.5498 10.0001 7.5498C9.17168 7.5498 8.50008 6.87823 8.50008 6.0498C8.50008 5.22137 9.17168 4.5498 10.0001 4.5498C10.8285 4.5498 11.5001 5.22137 11.5001 6.0498Z" fill="#A1A8B3"/>
</svg>
