<svg version="1.1" id="Layer_1" xmlns="http://www.w3.org/2000/svg" xmlns:xlink="http://www.w3.org/1999/xlink" x="0px" y="0px"
	 width="100%" viewBox="0 0 512 512" enable-background="new 0 0 512 512" xml:space="preserve">
<path fill="#474C54" opacity="1.000000" stroke="none" 
	d="
M427.000000,513.000000 
	C313.979095,513.000000 200.958206,513.000000 87.314362,512.631775 
	C75.753410,510.665405 66.198074,505.937042 58.164902,498.549622 
	C47.125164,488.397247 43.113274,474.937561 43.095547,460.536926 
	C42.932270,327.905243 42.987194,195.273270 43.041405,62.641399 
	C43.043690,57.053188 43.355259,51.426449 44.054409,45.884739 
	C45.843102,31.707079 53.162392,20.819057 64.154778,11.869452 
	C70.991295,6.303406 78.800446,3.387703 87.000000,1.000000 
	C166.354233,1.000000 245.708450,1.000000 325.621979,1.334355 
	C327.835724,2.993530 329.633209,4.175151 331.123840,5.663988 
	C375.917664,50.403854 420.680298,95.174942 465.451050,139.937943 
	C469.194855,143.681091 471.073944,147.987045 471.068756,153.477158 
	C470.975250,252.773880 471.016754,352.070740 470.958191,451.367523 
	C470.954895,456.955231 470.644592,462.581268 469.945526,468.122406 
	C468.157013,482.299438 460.832977,493.182037 449.842926,502.131531 
	C443.006805,507.698425 435.198181,510.611389 427.000000,513.000000 
M320.677094,26.407806 
	C318.228455,22.979176 314.954285,22.159231 310.763153,22.167166 
	C240.943100,22.299335 171.122696,22.240807 101.302444,22.313263 
	C97.172890,22.317547 92.901665,22.528412 88.940186,23.570259 
	C73.636261,27.595097 65.005455,39.966225 65.004272,57.344296 
	C64.995186,190.652771 64.998657,323.961243 65.004868,457.269714 
	C65.004959,459.268524 64.988777,461.275574 65.151222,463.264801 
	C66.202003,476.132111 72.487450,485.292603 84.874855,489.389099 
	C89.527199,490.927612 94.664200,491.638123 99.581528,491.643951 
	C204.561798,491.768036 309.542297,491.778381 414.522644,491.704285 
	C435.744934,491.689301 448.988983,478.124512 448.992889,456.825500 
	C449.010651,359.843597 449.000732,262.861664 449.000763,165.879761 
	C449.000763,164.299728 449.000763,162.719696 449.000763,160.999405 
	C447.261047,160.999405 446.267700,160.999649 445.274353,160.999359 
	C417.779572,160.991226 390.282104,161.218460 362.790741,160.908203 
	C335.709686,160.602570 313.210754,140.019852 310.849304,113.061531 
	C309.791351,100.983597 310.198639,88.754936 310.366364,76.600548 
	C310.464264,69.508652 313.226685,66.897652 321.681824,65.075897 
	C329.076508,67.091179 331.589813,70.125069 331.703857,77.816086 
	C331.837250,86.812386 331.651245,95.813416 331.783936,104.809738 
	C331.835205,108.282883 331.922424,111.866791 332.779999,115.197693 
	C336.736328,130.564636 348.766479,139.578796 365.633789,139.705933 
	C386.961761,139.866699 408.291870,139.748703 429.621063,139.740036 
	C430.558533,139.739655 431.495911,139.630692 432.433350,139.572311 
	C433.045990,138.829056 433.658630,138.085800 434.271301,137.342545 
	C432.610138,136.565308 430.566895,136.172012 429.343689,134.954681 
	C399.343658,105.098297 369.439270,75.145851 339.495117,45.233242 
	C333.372772,39.117340 327.159851,33.092133 320.677094,26.407806 
z"/>
<path fill="#FFFFFF" opacity="1.000000" stroke="none" 
	d="
M427.468658,513.000000 
	C435.198181,510.611389 443.006805,507.698425 449.842926,502.131531 
	C460.832977,493.182037 468.157013,482.299438 469.945526,468.122406 
	C470.644592,462.581268 470.954895,456.955231 470.958191,451.367523 
	C471.016754,352.070740 470.975250,252.773880 471.068756,153.477158 
	C471.073944,147.987045 469.194855,143.681091 465.451050,139.937943 
	C420.680298,95.174942 375.917664,50.403854 331.123840,5.663988 
	C329.633209,4.175151 327.835724,2.993530 326.090637,1.334355 
	C388.298584,1.000000 450.597168,1.000000 512.944946,1.000000 
	C512.944946,171.666672 512.944946,342.333344 512.944946,513.000000 
	C484.572357,513.000000 456.254852,513.000000 427.468658,513.000000 
z"/>
<path fill="#FFFFFF" opacity="1.000000" stroke="none" 
	d="
M86.531342,1.000000 
	C78.800446,3.387703 70.991295,6.303406 64.154778,11.869452 
	C53.162392,20.819057 45.843102,31.707079 44.054409,45.884739 
	C43.355259,51.426449 43.043690,57.053188 43.041405,62.641399 
	C42.987194,195.273270 42.932270,327.905243 43.095547,460.536926 
	C43.113274,474.937561 47.125164,488.397247 58.164902,498.549622 
	C66.198074,505.937042 75.753410,510.665405 86.845703,512.631775 
	C58.351677,513.000000 29.703356,513.000000 1.056769,513.000000 
	C1.058505,342.333313 1.058505,171.666656 1.058505,1.000000 
	C29.432234,1.000000 57.747459,1.000000 86.531342,1.000000 
z"/>
<path fill="#FEFEFE" opacity="1.000000" stroke="none" 
	d="
M320.961365,64.881134 
	C313.226685,66.897652 310.464264,69.508652 310.366364,76.600548 
	C310.198639,88.754936 309.791351,100.983597 310.849304,113.061531 
	C313.210754,140.019852 335.709686,160.602570 362.790741,160.908203 
	C390.282104,161.218460 417.779572,160.991226 445.274353,160.999359 
	C446.267700,160.999649 447.261047,160.999405 449.000763,160.999405 
	C449.000763,162.719696 449.000763,164.299728 449.000763,165.879761 
	C449.000732,262.861664 449.010651,359.843597 448.992889,456.825500 
	C448.988983,478.124512 435.744934,491.689301 414.522644,491.704285 
	C309.542297,491.778381 204.561798,491.768036 99.581528,491.643951 
	C94.664200,491.638123 89.527199,490.927612 84.874855,489.389099 
	C72.487450,485.292603 66.202003,476.132111 65.151222,463.264801 
	C64.988777,461.275574 65.004959,459.268524 65.004868,457.269714 
	C64.998657,323.961243 64.995186,190.652771 65.004272,57.344296 
	C65.005455,39.966225 73.636261,27.595097 88.940186,23.570259 
	C92.901665,22.528412 97.172890,22.317547 101.302444,22.313263 
	C171.122696,22.240807 240.943100,22.299335 310.763153,22.167166 
	C314.954285,22.159231 318.228455,22.979176 320.820007,27.183292 
	C320.962402,40.266228 320.961884,52.573681 320.961365,64.881134 
M287.499817,278.261230 
	C321.989929,278.261169 356.480042,278.266144 390.970154,278.249176 
	C393.131348,278.248108 395.321442,278.267059 397.447845,277.944946 
	C402.514954,277.177277 406.032043,273.004608 406.137329,267.913849 
	C406.281006,260.965790 401.350433,257.006012 392.452911,257.005310 
	C302.145416,256.998260 211.837906,256.996002 121.530411,257.031403 
	C119.392258,257.032257 117.169777,257.194824 115.133148,257.786377 
	C110.311333,259.186859 107.579224,263.413818 107.899544,268.429016 
	C108.210899,273.303833 111.671280,277.215790 116.568634,277.947235 
	C118.696106,278.264984 120.885315,278.248840 123.046524,278.249420 
	C177.530945,278.264282 232.015366,278.261169 287.499817,278.261230 
M108.981071,326.879639 
	C106.948212,333.095825 107.708237,337.545776 112.340668,340.017395 
	C115.233315,341.560760 118.946152,342.168671 122.292191,342.172791 
	C212.057770,342.283295 301.823517,342.262207 391.589233,342.251221 
	C393.417236,342.251007 395.264008,342.246246 397.069641,342.003174 
	C402.074036,341.329407 405.598724,337.651428 406.058563,332.799713 
	C406.555634,327.555084 403.809265,323.147308 398.748810,321.766968 
	C396.389526,321.123413 393.825012,321.031281 391.353363,321.030121 
	C314.910950,320.994354 238.468536,321.000854 162.026123,321.000885 
	C148.203201,321.000885 134.380203,321.025940 120.557388,320.987396 
	C115.977989,320.974640 111.991837,322.076630 108.981071,326.879639 
M304.161469,393.494202 
	C306.330353,394.229584 308.476624,395.507904 310.672363,395.599365 
	C317.474945,395.882660 324.309601,395.982452 331.106720,395.646515 
	C337.959930,395.307770 342.066376,391.110626 342.156067,385.180542 
	C342.249146,379.029541 338.045258,374.677734 330.970154,374.334259 
	C324.337189,374.012238 317.671509,374.111969 311.029205,374.316589 
	C306.224518,374.464600 302.200989,376.488129 300.497955,381.277069 
	C298.919617,385.715271 299.892426,389.794830 304.161469,393.494202 
M399.072845,394.984589 
	C404.945923,391.764587 407.034851,388.006012 405.922546,382.660187 
	C404.946045,377.967102 401.217834,374.636505 395.430511,374.397888 
	C388.143463,374.097412 380.798553,374.049988 373.537109,374.627960 
	C367.254913,375.127991 363.748077,379.493469 363.843933,385.200989 
	C363.936401,390.706970 367.356628,394.989410 373.441864,395.324829 
	C381.686981,395.779266 389.987671,395.225250 399.072845,394.984589 
z"/>
<path fill="#CED5DD" opacity="1.000000" stroke="none" 
	d="
M321.321594,64.978516 
	C320.961884,52.573681 320.962402,40.266228 320.975830,27.491947 
	C327.159851,33.092133 333.372772,39.117340 339.495117,45.233242 
	C369.439270,75.145851 399.343658,105.098297 429.343689,134.954681 
	C430.566895,136.172012 432.610138,136.565308 434.271301,137.342545 
	C433.658630,138.085800 433.045990,138.829056 432.433350,139.572311 
	C431.495911,139.630692 430.558533,139.739655 429.621063,139.740036 
	C408.291870,139.748703 386.961761,139.866699 365.633789,139.705933 
	C348.766479,139.578796 336.736328,130.564636 332.779999,115.197693 
	C331.922424,111.866791 331.835205,108.282883 331.783936,104.809738 
	C331.651245,95.813416 331.837250,86.812386 331.703857,77.816086 
	C331.589813,70.125069 329.076508,67.091179 321.321594,64.978516 
z"/>
<path fill="#474C54" opacity="1.000000" stroke="none" 
	d="
M286.999817,278.261230 
	C232.015366,278.261169 177.530945,278.264282 123.046524,278.249420 
	C120.885315,278.248840 118.696106,278.264984 116.568634,277.947235 
	C111.671280,277.215790 108.210899,273.303833 107.899544,268.429016 
	C107.579224,263.413818 110.311333,259.186859 115.133148,257.786377 
	C117.169777,257.194824 119.392258,257.032257 121.530411,257.031403 
	C211.837906,256.996002 302.145416,256.998260 392.452911,257.005310 
	C401.350433,257.006012 406.281006,260.965790 406.137329,267.913849 
	C406.032043,273.004608 402.514954,277.177277 397.447845,277.944946 
	C395.321442,278.267059 393.131348,278.248108 390.970154,278.249176 
	C356.480042,278.266144 321.989929,278.261169 286.999817,278.261230 
z"/>
<path fill="#474C54" opacity="1.000000" stroke="none" 
	d="
M109.174545,326.535339 
	C111.991837,322.076630 115.977989,320.974640 120.557388,320.987396 
	C134.380203,321.025940 148.203201,321.000885 162.026123,321.000885 
	C238.468536,321.000854 314.910950,320.994354 391.353363,321.030121 
	C393.825012,321.031281 396.389526,321.123413 398.748810,321.766968 
	C403.809265,323.147308 406.555634,327.555084 406.058563,332.799713 
	C405.598724,337.651428 402.074036,341.329407 397.069641,342.003174 
	C395.264008,342.246246 393.417236,342.251007 391.589233,342.251221 
	C301.823517,342.262207 212.057770,342.283295 122.292191,342.172791 
	C118.946152,342.168671 115.233315,341.560760 112.340668,340.017395 
	C107.708237,337.545776 106.948212,333.095825 109.174545,326.535339 
z"/>
<path fill="#4C5158" opacity="1.000000" stroke="none" 
	d="
M303.848938,393.264099 
	C299.892426,389.794830 298.919617,385.715271 300.497955,381.277069 
	C302.200989,376.488129 306.224518,374.464600 311.029205,374.316589 
	C317.671509,374.111969 324.337189,374.012238 330.970154,374.334259 
	C338.045258,374.677734 342.249146,379.029541 342.156067,385.180542 
	C342.066376,391.110626 337.959930,395.307770 331.106720,395.646515 
	C324.309601,395.982452 317.474945,395.882660 310.672363,395.599365 
	C308.476624,395.507904 306.330353,394.229584 303.848938,393.264099 
z"/>
<path fill="#4C5158" opacity="1.000000" stroke="none" 
	d="
M398.668701,395.044220 
	C389.987671,395.225250 381.686981,395.779266 373.441864,395.324829 
	C367.356628,394.989410 363.936401,390.706970 363.843933,385.200989 
	C363.748077,379.493469 367.254913,375.127991 373.537109,374.627960 
	C380.798553,374.049988 388.143463,374.097412 395.430511,374.397888 
	C401.217834,374.636505 404.946045,377.967102 405.922546,382.660187 
	C407.034851,388.006012 404.945923,391.764587 398.668701,395.044220 
z"/>
</svg>