<svg width="20" height="21" viewBox="0 0 20 21" fill="none" xmlns="http://www.w3.org/2000/svg">
<g clip-path="url(#clip0_471_836)">
<path d="M12.2352 0.0498047H0.941062C0.421269 0.0498047 -0.000114441 0.471188 -0.000114441 0.990981V17.9322C-0.000114441 18.452 0.421269 18.8733 0.941062 18.8733H8.71019C7.96582 17.8062 7.5293 16.5083 7.5293 15.1086C7.5293 11.47 10.4789 8.52039 14.1175 8.52039C15.128 8.52039 16.0853 8.74788 16.9411 9.15437V4.75569L12.2352 0.0498047ZM10.1511 12.5928C10.1877 11.9083 10.7159 11.3517 11.3975 11.2793L12.217 11.1923C12.3143 11.1819 12.406 11.1411 12.4789 11.0757L13.0918 10.525C13.6017 10.0668 14.3687 10.0468 14.9019 10.4776L15.5429 10.9955C15.6191 11.057 15.7127 11.0929 15.8105 11.0982L16.6334 11.1422C17.3178 11.1788 17.8744 11.707 17.9469 12.3886L18.0339 13.2081C18.0442 13.3054 18.0851 13.3971 18.1505 13.4699L18.7012 14.0829C19.1593 14.5928 19.1794 15.3598 18.7486 15.893L18.2307 16.534C18.1692 16.6102 18.1333 16.7038 18.128 16.8016L18.0839 17.6245C18.0473 18.3089 17.5191 18.8655 16.8375 18.938L16.0181 19.025C15.9207 19.0353 15.8291 19.0762 15.7562 19.1416L15.1432 19.6923C14.6334 20.1504 13.8663 20.1705 13.3332 19.7397L12.6921 19.2218C12.616 19.1603 12.5223 19.1243 12.4245 19.1191L11.6017 19.075C10.9173 19.0384 10.3606 18.5102 10.2882 17.8286L10.2012 17.0091C10.1909 16.9118 10.15 16.8202 10.0846 16.7473L9.53391 16.1343C9.07574 15.6245 9.0557 14.8573 9.48647 14.3243L10.0044 13.6832C10.0659 13.6071 10.1018 13.5134 10.1071 13.4156L10.1511 12.5928ZM16.9696 14.196L15.9714 13.1978L13.6469 15.5221L12.2637 14.1389L11.2655 15.1371L13.1478 17.0195L13.6469 17.5187L14.1461 17.0195L16.9696 14.196Z" fill="#3C54EF"/>
</g>
<defs>
<clipPath id="clip0_471_836">
<rect width="20" height="20" fill="white" transform="translate(0 0.0498047)"/>
</clipPath>
</defs>
</svg>
