<svg width="18" height="18" viewBox="0 0 18 18" fill="none" xmlns="http://www.w3.org/2000/svg">
<path d="M4.14226 14.0498C4.48545 13.0788 5.41148 12.3831 6.5 12.3831C7.5885 12.3831 8.51459 13.0788 8.85775 14.0498H17.3333V15.7164H8.85775C8.51459 16.6874 7.5885 17.3831 6.5 17.3831C5.41148 17.3831 4.48545 16.6874 4.14226 15.7164H0.666668V14.0498H4.14226ZM9.14225 8.21643C9.48542 7.24544 10.4115 6.54976 11.5 6.54976C12.5885 6.54976 13.5146 7.24544 13.8578 8.21643H17.3333V9.8831H13.8578C13.5146 10.8541 12.5885 11.5498 11.5 11.5498C10.4115 11.5498 9.48542 10.8541 9.14225 9.8831H0.666668V8.21643H9.14225ZM4.14226 2.3831C4.48545 1.41211 5.41148 0.716431 6.5 0.716431C7.5885 0.716431 8.51459 1.41211 8.85775 2.3831H17.3333V4.04976H8.85775C8.51459 5.02076 7.5885 5.71643 6.5 5.71643C5.41148 5.71643 4.48545 5.02076 4.14226 4.04976H0.666668V2.3831H4.14226ZM6.5 4.04976C6.96024 4.04976 7.33333 3.67666 7.33333 3.21643C7.33333 2.7562 6.96024 2.3831 6.5 2.3831C6.03977 2.3831 5.66667 2.7562 5.66667 3.21643C5.66667 3.67666 6.03977 4.04976 6.5 4.04976ZM11.5 9.8831C11.9603 9.8831 12.3333 9.51001 12.3333 9.04976C12.3333 8.58951 11.9603 8.21643 11.5 8.21643C11.0398 8.21643 10.6667 8.58951 10.6667 9.04976C10.6667 9.51001 11.0398 9.8831 11.5 9.8831ZM6.5 15.7164C6.96024 15.7164 7.33333 15.3433 7.33333 14.8831C7.33333 14.4228 6.96024 14.0498 6.5 14.0498C6.03977 14.0498 5.66667 14.4228 5.66667 14.8831C5.66667 15.3433 6.03977 15.7164 6.5 15.7164Z" fill="#A1A8B3"/>
</svg>
