<svg width="16" height="19" viewBox="0 0 16 19" fill="none" xmlns="http://www.w3.org/2000/svg">
<path d="M7 11.7165V13.3832C4.23857 13.3832 2 15.6218 2 18.3832H0.333332C0.333332 14.7013 3.3181 11.7165 7 11.7165ZM7 10.8832C4.2375 10.8832 2 8.64568 2 5.88318C2 3.12068 4.2375 0.883179 7 0.883179C9.7625 0.883179 12 3.12068 12 5.88318C12 8.64568 9.7625 10.8832 7 10.8832ZM7 9.21651C8.84167 9.21651 10.3333 7.72485 10.3333 5.88318C10.3333 4.04151 8.84167 2.54985 7 2.54985C5.15833 2.54985 3.66667 4.04151 3.66667 5.88318C3.66667 7.72485 5.15833 9.21651 7 9.21651ZM9.16217 15.7261C9.11058 15.5091 9.08333 15.2827 9.08333 15.0498C9.08333 14.8171 9.11058 14.5907 9.16208 14.3737L8.33575 13.8966L9.16908 12.4532L9.996 12.9306C10.3236 12.6208 10.723 12.386 11.1667 12.2539V11.2998H12.8333V12.2539C13.277 12.386 13.6763 12.6208 14.0039 12.9306L14.8309 12.4531L15.6643 13.8965L14.8379 14.3736C14.8894 14.5907 14.9167 14.8171 14.9167 15.0498C14.9167 15.2826 14.8894 15.509 14.8379 15.726L15.6643 16.2031L14.831 17.6465L14.004 17.169C13.6764 17.4789 13.2771 17.7137 12.8334 17.8457V18.7998H11.1667V17.8458C10.7231 17.7138 10.3237 17.479 9.99608 17.1691L9.16917 17.6466L8.33575 16.2032L9.16217 15.7261ZM12 16.2998C12.6903 16.2998 13.25 15.7402 13.25 15.0498C13.25 14.3595 12.6903 13.7998 12 13.7998C11.3097 13.7998 10.75 14.3595 10.75 15.0498C10.75 15.7402 11.3097 16.2998 12 16.2998Z" fill="#A1A8B3"/>
</svg>
