<svg width="20" height="20" viewBox="0 0 20 20" fill="none" xmlns="http://www.w3.org/2000/svg">
<path d="M1 5.26316C1 7.61764 2.90868 9.52632 5.26316 9.52632C7.61763 9.52632 9.52631 7.61764 9.52631 5.26316C9.52631 2.90868 7.61763 1 5.26316 1C2.90868 1 1 2.90868 1 5.26316ZM1 14.7368C1 17.0913 2.90868 19 5.26316 19C7.61763 19 9.52631 17.0913 9.52631 14.7368C9.52631 12.3823 7.61763 10.4737 5.26316 10.4737C2.90868 10.4737 1 12.3823 1 14.7368ZM10.4737 14.7368C10.4737 17.0913 12.3823 19 14.7368 19C17.0913 19 19 17.0913 19 14.7368C19 12.3823 17.0913 10.4737 14.7368 10.4737C12.3823 10.4737 10.4737 12.3823 10.4737 14.7368ZM7.63158 5.26316C7.63158 6.5712 6.5712 7.63158 5.26316 7.63158C3.95512 7.63158 2.89474 6.5712 2.89474 5.26316C2.89474 3.95512 3.95512 2.89474 5.26316 2.89474C6.5712 2.89474 7.63158 3.95512 7.63158 5.26316ZM7.63158 14.7368C7.63158 16.0449 6.5712 17.1053 5.26316 17.1053C3.95512 17.1053 2.89474 16.0449 2.89474 14.7368C2.89474 13.4288 3.95512 12.3684 5.26316 12.3684C6.5712 12.3684 7.63158 13.4288 7.63158 14.7368ZM17.1053 14.7368C17.1053 16.0449 16.0449 17.1053 14.7368 17.1053C13.4288 17.1053 12.3684 16.0449 12.3684 14.7368C12.3684 13.4288 13.4288 12.3684 14.7368 12.3684C16.0449 12.3684 17.1053 13.4288 17.1053 14.7368ZM15.2344 9.19948L15.4972 8.59657C15.9656 7.52167 16.8093 6.66582 17.862 6.19763L18.6716 5.83756C19.1094 5.64286 19.1094 5.00585 18.6716 4.81116L17.9074 4.47122C16.8275 3.99097 15.9686 3.10345 15.5083 1.99201L15.2385 1.34053C15.0503 0.886489 14.4233 0.886489 14.2352 1.34053L13.9653 1.99201C13.505 3.10345 12.6462 3.99097 11.5664 4.47122L10.802 4.81116C10.3643 5.00585 10.3643 5.64286 10.802 5.83756L11.6116 6.19763C12.6644 6.66582 13.508 7.52167 13.9765 8.59657L14.2393 9.19948C14.4316 9.64085 15.0421 9.64085 15.2344 9.19948Z" fill="#A1A8B3"/>
</svg>
