<svg width="52" height="18" viewBox="0 0 52 18" fill="none" xmlns="http://www.w3.org/2000/svg">
<path d="M9.64711 13.3936C9.7451 13.3936 9.81859 13.4263 9.86759 13.4916C9.91658 13.557 9.94108 13.6305 9.94108 13.7121C9.94108 13.7938 9.92475 13.8836 9.89209 13.9816C9.85942 14.0632 9.81859 14.1367 9.7696 14.2021C9.52463 14.496 9.23882 14.7573 8.91219 14.986C8.60189 15.1983 8.2671 15.3616 7.9078 15.4759C7.56484 15.5902 7.21371 15.6556 6.85442 15.6719C6.51145 15.6882 6.19299 15.6474 5.89902 15.5494C5.42541 16.023 4.9028 16.3905 4.33119 16.6518C3.75959 16.8968 3.20431 17.0193 2.66537 17.0193C2.30608 17.0193 1.96312 16.9621 1.63648 16.8478C1.32618 16.7171 1.04855 16.5211 0.803575 16.2598C0.558602 15.9822 0.370789 15.6392 0.240136 15.2309C0.109484 14.8063 0.0523236 14.3 0.0686552 13.7121C0.101318 12.7649 0.231971 11.7768 0.460612 10.7479C0.689254 9.71904 0.966891 8.70649 1.29352 7.71026C1.63648 6.69771 2.02028 5.74231 2.4449 4.84408C2.86952 3.92951 3.28597 3.12926 3.69426 2.44334C4.11888 1.75741 4.519 1.2103 4.89463 0.802014C5.27026 0.393726 5.58872 0.189581 5.85003 0.189581C6.07867 0.189581 6.4298 0.361063 6.90341 0.704026C7.06673 0.834678 7.18105 0.957164 7.24637 1.07149C7.32803 1.16947 7.31987 1.2593 7.22188 1.34096C6.65027 1.86357 6.07867 2.58215 5.50706 3.49672C4.93546 4.41129 4.40468 5.38302 3.91474 6.4119C3.42479 7.44079 3.00017 8.46968 2.64088 9.49857C2.28158 10.5275 2.02028 11.4175 1.85696 12.1688C1.7753 12.5281 1.72631 12.9282 1.70998 13.3691C1.69365 13.8101 1.74264 14.2184 1.85696 14.594C1.97128 14.9696 2.15909 15.2881 2.4204 15.5494C2.69804 15.7944 3.08999 15.9005 3.59627 15.8679C4.11888 15.8352 4.60066 15.5902 5.04161 15.133C4.22504 14.8553 3.59627 14.4144 3.15532 13.8101C2.7307 13.2058 2.50206 12.5771 2.46939 11.9238C2.43673 11.2705 2.59188 10.6663 2.93484 10.111C3.29414 9.55573 3.84941 9.1801 4.60066 8.98413C4.76398 8.93513 4.92729 8.91063 5.09061 8.91063C5.40091 8.91063 5.70304 8.97596 5.99701 9.10661C6.30731 9.23726 6.58495 9.42508 6.82992 9.67005C7.07489 9.91502 7.27087 10.209 7.41786 10.552C7.56484 10.8786 7.63833 11.2379 7.63833 11.6298C7.63833 12.0545 7.56484 12.5362 7.41786 13.0752C7.2872 13.6141 7.07489 14.0959 6.78092 14.5205C6.99324 14.6022 7.20555 14.6348 7.41786 14.6185C7.6465 14.6022 7.86697 14.545 8.07928 14.447C8.30793 14.349 8.51207 14.2266 8.69172 14.0796C8.8877 13.9326 9.05918 13.7774 9.20616 13.6141C9.32048 13.4671 9.46747 13.3936 9.64711 13.3936ZM5.67854 14.1531C5.93985 13.4835 6.05417 12.92 6.02151 12.4627C6.00518 11.9891 5.90719 11.6217 5.72754 11.3604C5.54789 11.0827 5.32742 10.9112 5.06611 10.8459C4.80481 10.7643 4.568 10.7888 4.35569 10.9194C4.15971 11.0337 4.02906 11.2542 3.96373 11.5808C3.89841 11.9075 3.9719 12.3321 4.18421 12.8547C4.31486 13.165 4.52717 13.4263 4.82114 13.6386C5.11511 13.8346 5.40091 14.0061 5.67854 14.1531Z" fill="#BFC3C9"/>
<path d="M10.5189 11.8258C10.3066 11.7278 10.1351 11.5972 10.0044 11.4339C9.64513 11.0419 9.45732 10.6499 9.44099 10.258C9.44099 9.86603 9.54715 9.52307 9.75946 9.2291C9.9881 8.93513 10.2984 8.70649 10.6904 8.54317C11.0986 8.37986 11.5314 8.3227 11.9887 8.37169C12.1684 8.38802 12.3317 8.44518 12.4787 8.54317C12.642 8.62483 12.7563 8.74732 12.8216 8.91063C12.8869 9.05762 12.8951 9.2536 12.8461 9.49857C12.8135 9.74354 12.691 10.0212 12.4787 10.3315C12.6583 10.3805 12.8625 10.3805 13.0911 10.3315C13.3361 10.2662 13.581 10.1927 13.826 10.111C14.071 10.0293 14.3078 9.95585 14.5364 9.89053C14.7651 9.80887 14.9529 9.77621 15.0999 9.79254C15.2632 9.79254 15.3775 9.84153 15.4428 9.93952C15.5245 10.0375 15.5653 10.16 15.5653 10.307C15.5653 10.4376 15.5408 10.5765 15.4918 10.7234C15.4428 10.8704 15.3775 10.9929 15.2959 11.0909C15.1325 11.2705 14.8957 11.5727 14.5854 11.9973C14.2915 12.4056 14.0057 12.8465 13.728 13.3202C13.4504 13.7774 13.2217 14.2184 13.0421 14.643C12.8788 15.0513 12.8543 15.3534 12.9686 15.5494C13.0339 15.6637 13.1646 15.6882 13.3606 15.6229C13.5565 15.5576 13.777 15.4433 14.022 15.2799C14.267 15.1166 14.5119 14.9125 14.7569 14.6675C15.0182 14.4225 15.2469 14.1694 15.4428 13.9081C15.5245 13.8101 15.6143 13.7203 15.7123 13.6386C15.8103 13.557 15.9246 13.5161 16.0553 13.5161C16.1696 13.5161 16.2757 13.5488 16.3737 13.6141C16.4881 13.7121 16.5126 13.8183 16.4472 13.9326C16.3982 14.0306 16.3411 14.1122 16.2757 14.1776C16.1778 14.2919 16.0634 14.4307 15.9328 14.594C15.8185 14.741 15.696 14.888 15.5653 15.035C15.451 15.182 15.3367 15.3208 15.2224 15.4514C15.1244 15.5821 15.0509 15.6719 15.0019 15.7209C14.6589 16.1455 14.2833 16.4803 13.875 16.7253C13.4831 16.9539 13.1401 17.0682 12.8461 17.0682C12.2745 17.0682 11.8581 16.9621 11.5968 16.7498C11.3518 16.5375 11.213 16.268 11.1803 15.9414C11.1476 15.5984 11.1966 15.2228 11.3273 14.8145C11.4743 14.4062 11.6621 14.0061 11.8907 13.6141C12.1194 13.2222 12.3643 12.8629 12.6256 12.5362C12.8869 12.1933 13.1238 11.9238 13.3361 11.7278C13.1074 11.8258 12.838 11.9075 12.5277 11.9728C12.2174 12.0381 11.9071 12.0626 11.5968 12.0463C11.3355 12.3076 11.0986 12.5689 10.8863 12.8302C10.6904 13.0588 10.4617 13.3283 10.2004 13.6386C9.95543 13.9489 9.74312 14.2021 9.56348 14.398C9.46549 14.5124 9.343 14.5858 9.19602 14.6185C9.06536 14.6512 8.95105 14.6512 8.85306 14.6185C8.75507 14.5858 8.68974 14.5205 8.65708 14.4225C8.64074 14.3082 8.70607 14.1612 8.85306 13.9816L10.5189 11.8258ZM11.4498 10.307C11.6131 10.0293 11.6947 9.8007 11.6947 9.62106C11.7111 9.44141 11.6784 9.30259 11.5968 9.2046C11.5314 9.09028 11.4416 9.02495 11.3273 9.00862C11.213 8.97596 11.1068 8.97596 11.0088 9.00862C10.8292 9.09028 10.7802 9.27809 10.8618 9.57206C10.9435 9.8497 11.1395 10.0947 11.4498 10.307Z" fill="#BFC3C9"/>
<path d="M24.6446 13.4671C24.8243 13.4671 24.9141 13.5488 24.9141 13.7121C24.9141 13.7938 24.8815 13.8999 24.8161 14.0306C24.7671 14.1449 24.6691 14.2755 24.5222 14.4225C23.8036 15.2881 23.1176 15.9414 22.4644 16.3823C21.8111 16.8069 21.2559 17.0193 20.7986 17.0193C20.4393 17.0193 20.1453 16.9458 19.9167 16.7988C19.688 16.6355 19.5329 16.3742 19.4512 16.0149C18.8633 16.6845 18.1855 17.0193 17.4179 17.0193C17.124 17.0193 16.8382 16.9621 16.5605 16.8478C16.2992 16.7171 16.0706 16.5456 15.8746 16.3333C15.6786 16.121 15.5153 15.876 15.3847 15.5984C15.2703 15.3044 15.2132 14.986 15.2132 14.643C15.2132 14.3327 15.2458 14.0387 15.3112 13.7611C15.3765 13.4835 15.45 13.2058 15.5316 12.9282C15.744 12.2913 16.0298 11.7278 16.389 11.2379C16.7483 10.7316 17.1485 10.3151 17.5894 9.98852C18.0304 9.66188 18.4795 9.41691 18.9368 9.2536C19.3941 9.07395 19.8268 8.98413 20.2351 8.98413C20.5781 8.98413 20.8884 9.04945 21.166 9.1801C21.4437 9.29442 21.656 9.48224 21.803 9.74354C21.9826 9.59656 22.1786 9.46591 22.3909 9.35158C22.6195 9.22093 22.8155 9.15561 22.9788 9.15561C23.3381 9.15561 23.5178 9.29442 23.5178 9.57206C23.5178 9.73538 23.4524 9.94769 23.3218 10.209C23.2075 10.4703 23.0768 10.7643 22.9298 11.0909C22.6849 11.6135 22.4236 12.2096 22.1459 12.8792C21.8683 13.5488 21.6233 14.2429 21.411 14.9615C21.3783 15.0431 21.3457 15.133 21.313 15.2309C21.2967 15.3289 21.2885 15.4106 21.2885 15.4759C21.2885 15.7046 21.3783 15.8189 21.558 15.8189C21.754 15.8189 22.0806 15.6474 22.5379 15.3044C22.9952 14.9451 23.5341 14.398 24.1547 13.6631C24.2364 13.5815 24.318 13.5325 24.3997 13.5161C24.4977 13.4835 24.5793 13.4671 24.6446 13.4671ZM20.9456 11.2134C20.9129 10.8378 20.8149 10.5683 20.6516 10.405C20.5046 10.2417 20.3168 10.16 20.0881 10.16C19.7942 10.16 19.4757 10.2825 19.1327 10.5275C18.7898 10.7724 18.4632 11.0909 18.1529 11.4829C17.8426 11.8748 17.5813 12.3239 17.3689 12.8302C17.173 13.3365 17.075 13.8591 17.075 14.398C17.075 14.7737 17.1485 15.1166 17.2955 15.4269C17.4424 15.7209 17.6874 15.8679 18.0304 15.8679C18.2427 15.8679 18.4877 15.7617 18.7653 15.5494C19.0593 15.3208 19.3206 15.0023 19.5492 14.594C19.7452 13.9081 19.982 13.2793 20.2596 12.7077C20.5373 12.1198 20.7414 11.6707 20.8721 11.3604L20.9456 11.2134Z" fill="#BFC3C9"/>
<path d="M32.2321 13.4916C32.4444 13.4916 32.5506 13.5896 32.5506 13.7856C32.5506 13.9653 32.4199 14.1939 32.1586 14.4715C31.44 15.3208 30.8031 15.9577 30.2478 16.3823C29.7089 16.8069 29.2108 17.0193 28.7535 17.0193C28.2799 17.0193 27.9288 16.8886 27.7001 16.6273C27.4878 16.366 27.3817 16.023 27.3817 15.5984C27.3817 15.2881 27.4306 14.9615 27.5286 14.6185C27.6593 14.1286 27.8063 13.6958 27.9696 13.3202C28.1329 12.9282 28.2799 12.5852 28.4105 12.2913C28.5575 11.9973 28.68 11.7523 28.778 11.5563C28.876 11.3604 28.925 11.2134 28.925 11.1154C28.925 11.0174 28.8842 10.9684 28.8025 10.9684C28.6882 10.9684 28.5167 11.0419 28.2881 11.1889C28.0757 11.3359 27.8308 11.5237 27.5531 11.7523C27.2918 11.981 27.0224 12.2423 26.7447 12.5362C26.4671 12.8302 26.2139 13.1323 25.9853 13.4426L25.7158 14.1286C25.6832 14.1939 25.6505 14.2592 25.6178 14.3245C25.6015 14.3735 25.5852 14.4307 25.5688 14.496L25.1524 15.6964C25.0054 16.1047 24.7604 16.4313 24.4175 16.6763C24.0745 16.9049 23.7642 17.0193 23.4866 17.0193C23.1926 17.0193 23.0456 16.8804 23.0456 16.6028C23.0456 16.5211 23.0701 16.3905 23.1191 16.2108C23.4457 15.2309 23.7724 14.2755 24.099 13.3447C24.442 12.3974 24.8013 11.4339 25.1769 10.454C25.2259 10.3233 25.2586 10.2253 25.2749 10.16C25.2912 10.0947 25.3402 9.99668 25.4219 9.86603C25.5852 9.57206 25.8302 9.35159 26.1568 9.2046C26.4997 9.05762 26.81 8.98413 27.0877 8.98413H27.2347C27.447 9.03312 27.5531 9.10661 27.5531 9.2046C27.5531 9.2536 27.5368 9.31076 27.5041 9.37608C27.4878 9.44141 27.4633 9.5149 27.4306 9.59656L26.7937 11.2624C27.104 10.9684 27.4306 10.6989 27.7736 10.454C28.1166 10.1927 28.4514 9.97219 28.778 9.79254C29.1046 9.61289 29.4149 9.47407 29.7089 9.37608C30.0029 9.27809 30.2642 9.2291 30.4928 9.2291C30.7215 9.2291 30.9011 9.28626 31.0318 9.40058C31.1787 9.5149 31.2522 9.68638 31.2522 9.91502C31.2522 10.2253 31.1297 10.6254 30.8848 11.1154C30.6398 11.638 30.3703 12.2423 30.0764 12.9282C29.7824 13.6141 29.5374 14.2919 29.3414 14.9615C29.3251 15.0105 29.3088 15.084 29.2924 15.182C29.2761 15.2636 29.2679 15.3453 29.2679 15.4269C29.2679 15.4923 29.2843 15.5576 29.3169 15.6229C29.3659 15.6719 29.4394 15.6964 29.5374 15.6964C29.7497 15.6964 30.0192 15.5494 30.3458 15.2554C30.6888 14.9451 31.1706 14.4225 31.7912 13.6876C31.9218 13.557 32.0688 13.4916 32.2321 13.4916Z" fill="#BFC3C9"/>
<path d="M42.0912 0.238575C42.3035 0.81018 42.3688 1.49611 42.2871 2.29635C42.2055 3.08027 42.0258 3.92134 41.7482 4.81958C41.4706 5.71781 41.1276 6.64871 40.7193 7.61227C40.3273 8.5595 39.9272 9.48224 39.5189 10.3805C39.127 11.2787 38.7514 12.1279 38.3921 12.9282C38.0491 13.7121 37.796 14.3899 37.6326 14.9615C37.6 15.0431 37.5755 15.133 37.5591 15.2309C37.5428 15.3289 37.5346 15.4106 37.5346 15.4759C37.5346 15.5739 37.5428 15.6392 37.5591 15.6719C37.5755 15.6882 37.6 15.6964 37.6326 15.6964C37.8286 15.6964 38.1552 15.5412 38.6125 15.2309C39.0698 14.9043 39.6088 14.3735 40.2294 13.6386C40.36 13.508 40.507 13.4426 40.6703 13.4426C40.752 13.4426 40.8418 13.4508 40.9398 13.4671C41.0378 13.4835 41.0868 13.5406 41.0868 13.6386C41.0868 13.7203 41.0623 13.8019 41.0133 13.8836C40.9806 13.9653 40.8989 14.0959 40.7683 14.2755C40.0334 15.1248 39.3393 15.7944 38.686 16.2843C38.0491 16.7743 37.502 17.0193 37.0447 17.0193C36.4731 17.0193 36.073 16.8314 35.8443 16.4558C35.7137 16.2762 35.6402 16.072 35.6239 15.8434C35.0033 16.5456 34.3092 16.8968 33.5416 16.8968C33.2476 16.8968 32.9618 16.8396 32.6842 16.7253C32.4229 16.5946 32.1861 16.4231 31.9738 16.2108C31.7778 15.9985 31.6145 15.7536 31.4838 15.4759C31.3695 15.182 31.3123 14.8635 31.3123 14.5205C31.3123 14.2102 31.345 13.9163 31.4103 13.6386C31.4756 13.361 31.5491 13.0833 31.6308 12.8057C31.9248 11.9075 32.3657 11.1562 32.9536 10.552C33.5416 9.93136 34.154 9.48224 34.7909 9.2046C35.4442 8.91063 36.0566 8.79631 36.6283 8.86164C37.2162 8.91063 37.649 9.14744 37.9266 9.57206C38.2206 9.00046 38.5064 8.37986 38.784 7.71026C39.078 7.04067 39.3311 6.33841 39.5434 5.60349C39.7557 4.86857 39.9109 4.12549 40.0089 3.37423C40.1069 2.60665 40.1069 1.83907 40.0089 1.07149C39.9762 0.859175 40.0579 0.679528 40.2539 0.532544C40.4662 0.38556 40.703 0.279405 40.9643 0.214078C41.2256 0.148752 41.4706 0.116089 41.6992 0.116089C41.9278 0.116089 42.0585 0.156918 42.0912 0.238575ZM36.7262 12.1688C36.8079 11.9891 36.8814 11.834 36.9467 11.7033C37.012 11.5727 37.0692 11.4584 37.1182 11.3604C37.1019 10.8378 36.9875 10.4785 36.7752 10.2825C36.5793 10.0702 36.3343 9.98852 36.0403 10.0375C35.7463 10.0865 35.4279 10.2417 35.0849 10.503C34.7583 10.7479 34.448 11.0664 34.154 11.4584C33.8764 11.8503 33.6396 12.2913 33.4436 12.7812C33.2639 13.2712 33.1741 13.7693 33.1741 14.2755C33.1741 14.6512 33.2476 14.9941 33.3946 15.3044C33.5579 15.5984 33.8111 15.7454 34.154 15.7454C34.4153 15.7454 34.7338 15.5657 35.1094 15.2064C35.5014 14.8472 35.8117 14.3817 36.0403 13.8101L36.0648 13.7121C36.1791 13.4181 36.2934 13.1487 36.4078 12.9037C36.5221 12.6424 36.6282 12.3974 36.7262 12.1688Z" fill="#BFC3C9"/>
<path d="M44.6823 14.4715C43.9801 15.3208 43.2941 15.9577 42.6245 16.3823C41.9549 16.8069 41.3915 17.0193 40.9342 17.0193C40.4443 17.0193 40.085 16.8886 39.8563 16.6273C39.6277 16.366 39.5134 16.0149 39.5134 15.5739C39.5134 15.4269 39.5297 15.2718 39.5624 15.1085C39.595 14.9451 39.6359 14.7818 39.6849 14.6185C39.9135 13.8346 40.1585 13.0915 40.4198 12.3893C40.6974 11.6707 40.9424 11.0256 41.1547 10.454C41.2037 10.3233 41.2364 10.2253 41.2527 10.16C41.269 10.0947 41.318 9.99668 41.3997 9.86603C41.563 9.57206 41.808 9.35159 42.1346 9.2046C42.4776 9.05762 42.7879 8.98413 43.0655 8.98413H43.2125C43.4248 9.03312 43.5309 9.10661 43.5309 9.2046C43.5309 9.2536 43.5146 9.31076 43.4819 9.37608C43.4656 9.44141 43.4411 9.5149 43.4085 9.59656L42.649 11.5808C42.4531 12.1035 42.2571 12.6669 42.0611 13.2712C41.8651 13.8591 41.6855 14.4225 41.5222 14.9615C41.4895 15.0595 41.465 15.1493 41.4487 15.2309C41.4323 15.3126 41.4242 15.3943 41.4242 15.4759C41.4242 15.7046 41.5058 15.8189 41.6691 15.8189C41.8651 15.8189 42.1999 15.6474 42.6735 15.3044C43.1472 14.9615 43.6943 14.4225 44.3149 13.6876C44.4455 13.557 44.6007 13.4916 44.7803 13.4916C44.9763 13.4916 45.0743 13.5815 45.0743 13.7611C45.0743 13.9081 44.9436 14.1449 44.6823 14.4715ZM42.992 8.07772C42.698 8.07772 42.4449 7.9879 42.2326 7.80825C42.0366 7.62861 41.9386 7.39996 41.9386 7.12233C41.9386 6.92635 41.9794 6.73854 42.0611 6.55889C42.1591 6.37924 42.2816 6.22409 42.4286 6.09344C42.5919 5.94646 42.7634 5.83213 42.943 5.75048C43.139 5.66882 43.335 5.62799 43.5309 5.62799C43.8249 5.62799 44.0699 5.70965 44.2659 5.87296C44.4782 6.03628 44.5843 6.28125 44.5843 6.60788C44.5843 6.78753 44.5435 6.96718 44.4618 7.14682C44.3802 7.31014 44.2659 7.46529 44.1189 7.61227C43.9719 7.74293 43.8004 7.85725 43.6044 7.95524C43.4085 8.0369 43.2043 8.07772 42.992 8.07772Z" fill="#BFC3C9"/>
<path d="M51.7123 13.4671C51.8919 13.4671 51.9818 13.557 51.9818 13.7366C51.9818 13.8183 51.9573 13.9081 51.9083 14.0061C51.8756 14.1041 51.7939 14.2347 51.6633 14.398C51.0264 15.182 50.2751 15.8189 49.4095 16.3088C48.544 16.7824 47.6702 17.0193 46.7883 17.0193C45.9228 17.0193 45.2123 16.7579 44.6571 16.2353C44.1018 15.7127 43.8242 15.0268 43.8242 14.1776C43.8242 13.5406 43.9466 12.9119 44.1916 12.2913C44.4366 11.6707 44.7714 11.1154 45.196 10.6254C45.637 10.1355 46.1514 9.74354 46.7393 9.44957C47.3273 9.13927 47.9642 8.98413 48.6501 8.98413C49.0584 8.98413 49.4177 9.06578 49.728 9.2291C50.0383 9.37608 50.2751 9.58839 50.4384 9.86603C50.5854 10.0783 50.6589 10.3641 50.6589 10.7234C50.6589 11.0991 50.5772 11.491 50.4139 11.8993C50.071 12.7649 49.5402 13.4753 48.8216 14.0306C48.1193 14.5858 47.2456 14.9206 46.2004 15.035C46.3474 15.2636 46.5515 15.4351 46.8128 15.5494C47.0741 15.6637 47.3436 15.7209 47.6212 15.7209C48.1602 15.7209 48.7481 15.5657 49.385 15.2554C50.022 14.9451 50.6507 14.4225 51.2713 13.6876C51.3693 13.5406 51.5163 13.4671 51.7123 13.4671ZM47.5967 10.0865C47.3518 10.2172 47.115 10.4213 46.8863 10.6989C46.6577 10.9602 46.4535 11.2624 46.2739 11.6053C46.0942 11.9483 45.9473 12.3076 45.8329 12.6832C45.7349 13.0425 45.6859 13.3855 45.6859 13.7121C45.6859 13.7938 45.6859 13.8673 45.6859 13.9326C45.7023 13.9979 45.7186 14.0714 45.7349 14.1531C45.7676 14.1531 45.7839 14.1531 45.7839 14.1531C45.8003 14.1367 45.8248 14.1286 45.8574 14.1286C46.1024 14.0796 46.3474 14.0224 46.5924 13.9571C46.8373 13.8918 47.066 13.8101 47.2783 13.7121C47.5069 13.5978 47.7192 13.459 47.9152 13.2957C48.1112 13.1323 48.2745 12.92 48.4052 12.6587C48.5358 12.4301 48.6256 12.1851 48.6746 11.9238C48.7236 11.6462 48.7481 11.393 48.7481 11.1644C48.7481 10.8378 48.691 10.5601 48.5766 10.3315C48.4623 10.0865 48.2827 9.96402 48.0377 9.96402C47.9397 9.96402 47.7927 10.0048 47.5967 10.0865Z" fill="#BFC3C9"/>
</svg>
