<svg width="18" height="16" viewBox="0 0 18 16" fill="none" xmlns="http://www.w3.org/2000/svg">
<path d="M6.08333 3.83333C6.08333 4.75381 5.33714 5.5 4.41667 5.5C3.49619 5.5 2.75 4.75381 2.75 3.83333C2.75 2.91286 3.49619 2.16667 4.41667 2.16667C5.33714 2.16667 6.08333 2.91286 6.08333 3.83333ZM1.08333 3.83333C1.08333 5.67428 2.57572 7.16667 4.41667 7.16667C6.25762 7.16667 7.75 5.67428 7.75 3.83333C7.75 1.99238 6.25762 0.5 4.41667 0.5C2.57572 0.5 1.08333 1.99238 1.08333 3.83333ZM6.5 11.75C6.5 10.5994 5.56726 9.66667 4.41667 9.66667C3.26608 9.66667 2.33333 10.5994 2.33333 11.75V13.8333H6.5V11.75ZM8.16667 15.5H0.666668V11.75C0.666668 9.67892 2.3456 8 4.41667 8C6.48773 8 8.16667 9.67892 8.16667 11.75V15.5ZM15.25 3.83333C15.25 4.75381 14.5038 5.5 13.5833 5.5C12.6628 5.5 11.9167 4.75381 11.9167 3.83333C11.9167 2.91286 12.6628 2.16667 13.5833 2.16667C14.5038 2.16667 15.25 2.91286 15.25 3.83333ZM10.25 3.83333C10.25 5.67428 11.7424 7.16667 13.5833 7.16667C15.4243 7.16667 16.9167 5.67428 16.9167 3.83333C16.9167 1.99238 15.4243 0.5 13.5833 0.5C11.7424 0.5 10.25 1.99238 10.25 3.83333ZM15.6667 11.75C15.6667 10.5994 14.7339 9.66667 13.5833 9.66667C12.4328 9.66667 11.5 10.5994 11.5 11.75V13.8333H15.6667V11.75ZM9.83333 13.8333V11.75C9.83333 9.67892 11.5123 8 13.5833 8C15.6544 8 17.3333 9.67892 17.3333 11.75V15.5H9.83333V13.8333Z" fill="#A1A8B3"/>
</svg>
