<svg width="18" height="18" viewBox="0 0 18 18" fill="none" xmlns="http://www.w3.org/2000/svg">
<path d="M9.83333 15.5V17.1667H8.16667V15.5H1.5C1.03977 15.5 0.666668 15.1269 0.666668 14.6667V1.33333C0.666668 0.8731 1.03977 0.5 1.5 0.5H6.5C7.49558 0.5 8.38925 0.936458 9 1.62848C9.61075 0.936458 10.5044 0.5 11.5 0.5H16.5C16.9603 0.5 17.3333 0.8731 17.3333 1.33333V14.6667C17.3333 15.1269 16.9603 15.5 16.5 15.5H9.83333ZM15.6667 13.8333V2.16667H11.5C10.5795 2.16667 9.83333 2.91286 9.83333 3.83333V13.8333H15.6667ZM8.16667 13.8333V3.83333C8.16667 2.91286 7.4205 2.16667 6.5 2.16667H2.33333V13.8333H8.16667Z" fill="#A1A8B3"/>
</svg>
