<svg width="18" height="16" viewBox="0 0 18 16" fill="none" xmlns="http://www.w3.org/2000/svg">
<path d="M1.49317 15.5C1.03671 15.5 0.666668 15.1292 0.666668 14.6722V1.32783C0.666668 0.870633 1.04609 0.5 1.49317 0.5H16.5068C16.9633 0.5 17.3333 0.870792 17.3333 1.32783V14.6722C17.3333 15.1293 16.9539 15.5 16.5068 15.5H1.49317ZM15.6667 10.5V2.16667H2.33333V13.8333L10.6667 5.5L15.6667 10.5ZM15.6667 12.857L10.6667 7.857L4.69036 13.8333H15.6667V12.857ZM5.66667 7.16667C4.74619 7.16667 4 6.4205 4 5.5C4 4.57952 4.74619 3.83333 5.66667 3.83333C6.58714 3.83333 7.33333 4.57952 7.33333 5.5C7.33333 6.4205 6.58714 7.16667 5.66667 7.16667Z" fill="#A1A8B3"/>
</svg>
