<svg width="18" height="18" viewBox="0 0 18 18" fill="none" xmlns="http://www.w3.org/2000/svg">
<path d="M6.95833 8.58329C5.9228 8.58329 5.08333 7.74379 5.08333 6.70829C5.08333 5.67276 5.9228 4.83329 6.95833 4.83329C7.99383 4.83329 8.83333 5.67276 8.83333 6.70829C8.83333 7.74379 7.99383 8.58329 6.95833 8.58329ZM7.33333 15.4566V12.6666C7.33333 12.2596 7.4535 11.8855 7.67009 11.552C7.42392 11.5177 7.17234 11.5 6.91667 11.5C5.61001 11.5 4.41141 11.9626 3.47576 12.733C4.37424 14.06 5.73828 15.046 7.33333 15.4566ZM2.71072 11.2166C3.88693 10.3473 5.34178 9.83329 6.91667 9.83329C7.78625 9.83329 8.61925 9.98996 9.38892 10.2767C10.1206 9.99063 10.9937 9.83329 11.9167 9.83329C13.2998 9.83329 14.5708 10.1865 15.4217 10.7969C15.5813 10.2252 15.6667 9.62254 15.6667 8.99996C15.6667 5.31806 12.6819 2.33329 9 2.33329C5.3181 2.33329 2.33333 5.31806 2.33333 8.99996C2.33333 9.77704 2.4663 10.5231 2.71072 11.2166ZM14.7328 12.4049C14.4052 11.9605 13.309 11.5 11.9167 11.5C10.2449 11.5 9 12.1639 9 12.6666V15.6666C11.4379 15.6666 13.5703 14.358 14.7328 12.4049ZM9 17.3333C4.39763 17.3333 0.666668 13.6023 0.666668 8.99996C0.666668 4.39758 4.39763 0.666626 9 0.666626C13.6023 0.666626 17.3333 4.39758 17.3333 8.99996C17.3333 13.6023 13.6023 17.3333 9 17.3333ZM11.9167 9.41663C10.9962 9.41663 10.25 8.67046 10.25 7.74996C10.25 6.82948 10.9962 6.08329 11.9167 6.08329C12.8372 6.08329 13.5833 6.82948 13.5833 7.74996C13.5833 8.67046 12.8372 9.41663 11.9167 9.41663Z" fill="#A1A8B3"/>
</svg>
