<svg width="20" height="20" viewBox="0 0 20 20" fill="none" xmlns="http://www.w3.org/2000/svg">
<g clip-path="url(#clip0_471_769)">
<path d="M11.6667 17.5C11.2064 17.5 10.8333 17.1269 10.8333 16.6667V10C10.8333 9.53975 11.2064 9.16667 11.6667 9.16667H16.6667C17.1269 9.16667 17.5 9.53975 17.5 10V16.6667C17.5 17.1269 17.1269 17.5 16.6667 17.5H11.6667ZM3.33333 10.8333C2.8731 10.8333 2.5 10.4602 2.5 10V3.33333C2.5 2.8731 2.8731 2.5 3.33333 2.5H8.33333C8.79358 2.5 9.16667 2.8731 9.16667 3.33333V10C9.16667 10.4602 8.79358 10.8333 8.33333 10.8333H3.33333ZM7.5 9.16667V4.16667H4.16667V9.16667H7.5ZM3.33333 17.5C2.8731 17.5 2.5 17.1269 2.5 16.6667V13.3333C2.5 12.8731 2.8731 12.5 3.33333 12.5H8.33333C8.79358 12.5 9.16667 12.8731 9.16667 13.3333V16.6667C9.16667 17.1269 8.79358 17.5 8.33333 17.5H3.33333ZM4.16667 15.8333H7.5V14.1667H4.16667V15.8333ZM12.5 15.8333H15.8333V10.8333H12.5V15.8333ZM10.8333 3.33333C10.8333 2.8731 11.2064 2.5 11.6667 2.5H16.6667C17.1269 2.5 17.5 2.8731 17.5 3.33333V6.66667C17.5 7.1269 17.1269 7.5 16.6667 7.5H11.6667C11.2064 7.5 10.8333 7.1269 10.8333 6.66667V3.33333ZM12.5 4.16667V5.83333H15.8333V4.16667H12.5Z" fill="#A1A8B3"/>
</g>
<defs>
<clipPath id="clip0_471_769">
<rect width="20" height="20" fill="white"/>
</clipPath>
</defs>
</svg>
