<svg width="18" height="16" viewBox="0 0 18 16" fill="none" xmlns="http://www.w3.org/2000/svg">
<path d="M9.34517 2.16667H16.5C16.9603 2.16667 17.3333 2.53977 17.3333 3V14.6667C17.3333 15.1269 16.9603 15.5 16.5 15.5H1.5C1.03977 15.5 0.666668 15.1269 0.666668 14.6667V1.33333C0.666668 0.8731 1.03977 0.5 1.5 0.5H7.6785L9.34517 2.16667ZM2.33333 2.16667V13.8333H15.6667V3.83333H8.65484L6.98816 2.16667H2.33333ZM5.66667 13C5.66667 11.1591 7.15905 9.66667 9 9.66667C10.8409 9.66667 12.3333 11.1591 12.3333 13H5.66667ZM9 8.83333C7.84942 8.83333 6.91667 7.90058 6.91667 6.75C6.91667 5.59941 7.84942 4.66667 9 4.66667C10.1506 4.66667 11.0833 5.59941 11.0833 6.75C11.0833 7.90058 10.1506 8.83333 9 8.83333Z" fill="#A1A8B3"/>
</svg>
